<svg xmlns="http://www.w3.org/2000/svg" width="236.94" height="65.762" viewBox="0 0 236.94 65.762">
  <g id="Shape_logo_black" data-name="Shape logo black" transform="translate(0 0.001)">
    <path id="Caminho_16" data-name="Caminho 16" d="M205.486.757,193.9,20.936h23.164Z" transform="translate(-28.863 -0.113)" fill="#0f32ff" fill-rule="evenodd"/>
    <path id="Caminho_17" data-name="Caminho 17" d="M13.464,33.667c-5.292,0-9.208,2.192-9.208,5.694-.006,1.807,1.159,3.6,6.034,4.978l8.4,2.411c4.875,1.369,7.22,3.775,7.22,6.9,0,4.705-5.476,8.047-12.572,8.047C7.3,61.674,2.132,59.23.079,55.616a.343.343,0,0,1,.051-.489A.327.327,0,0,1,.2,55.081l1.37-.765a.421.421,0,0,1,.542.053c2.167,3.283,5.958,5.256,11.207,5.256,5.634-.011,9.967-2.31,9.967-5.7,0-2.465-2.118-4.16-7.345-5.529l-6.4-1.754C3.318,45,1.623,42.537,1.623,39.8c0-4.983,5.108-8.213,11.917-8.213,5.108,0,9.463,1.807,11.916,5.037.19.219.125.326-.059.438l-1.479.818a.421.421,0,0,1-.541-.053C21.432,35.255,18.008,33.667,13.464,33.667Z" transform="translate(0 -4.702)" fill-rule="evenodd"/>
    <path id="Caminho_18" data-name="Caminho 18" d="M41.186,58.89V19.1c0-.327.124-.494.495-.494h1.3c.371,0,.495.113.495.44V34.094c0,.387.123.441.494.167,4.7-2.97,7.477-4.565,11.986-4.565,6.606,0,10,3.3,10,8.083V58.841c0,.387-.183.537-.538.537h-1.36c-.371,0-.537-.162-.537-.494V38.659c0-4.3-2.225-6.875-7.6-6.875-4.386,0-7.288,1.708-12.228,5.059V58.89c0,.333-.188.494-.538.494H41.745C41.374,59.379,41.186,59.223,41.186,58.89Z" transform="translate(-6.13 -2.769)" fill-rule="evenodd"/>
    <path id="Caminho_19" data-name="Caminho 19" d="M90.283,61.693c-6.551,0-10.6-2.992-10.6-7.926,0-5.534,5.182-8.708,15.416-9.479l6.556-.492c.684-.054,1.059-.326,1.059-.818v-1.7c0-4.656-3.682-7.616-9.3-7.616A13.186,13.186,0,0,0,82.928,38.7c-.25.273-.375.385-.625.219L80.81,38.1c-.19-.107-.25-.273,0-.535a15.454,15.454,0,0,1,12.732-5.973c7.061,0,11.673,3.564,11.673,9.478V60.622c0,.439-.249.535-.625.535h-1.124c-.375,0-.543-.107-.543-.492l-.125-3.34c-.065-.385-.315-.438-.625-.112A17.173,17.173,0,0,1,90.283,61.693ZM101.831,45.8l-5.551.385c-9.8.675-13.988,3.2-13.988,7.418,0,3.778,3.314,6.027,8.365,6.027a15.23,15.23,0,0,0,8.49-2.676c2.309-1.643,3.559-3.506,3.559-5.149V46.589c0-.6-.31-.819-.875-.765Z" transform="translate(-11.861 -4.702)" fill-rule="evenodd"/>
    <path id="Caminho_20" data-name="Caminho 20" d="M124.539,32.748V35.56c0,.609.249.663.748.221,1-.937,3.677-4.192,10.156-4.192,7.977,0,14.207,4.849,14.207,14.617,0,9.374-5.8,15.721-14.956,15.721a15.553,15.553,0,0,1-9.131-2.759c-.689-.5-.873-.334-.873.382V69.921c0,.388-.124.539-.542.539h-1.431a.449.449,0,0,1-.5-.393.419.419,0,0,1,0-.1V32.812c0-.5.189-.657.748-.657h.97a.541.541,0,0,1,.6.473A.512.512,0,0,1,124.539,32.748Zm10.1,27.083c7.163,0,12.4-5.021,12.4-13.4,0-8.771-5.667-12.741-11.93-12.741S124.636,38,124.636,41.3V55.639C127.732,58.23,130.834,59.831,134.635,59.831Z" transform="translate(-18.192 -4.702)" fill-rule="evenodd"/>
    <path id="Caminho_21" data-name="Caminho 21" d="M177.605,59.631c4.977,0,8.654-1.807,10.877-5.09.249-.332.438-.385.686-.22l1.428.818a.341.341,0,0,1,.065.535c-2.861,3.995-7.209,6.021-13.056,6.021-8.95,0-15.1-6.021-15.1-14.838,0-9.576,6.339-15.271,15.1-15.271s14.235,5.347,14.235,14.56c0,.439.125,1.1-.806,1.1H165.47c-.249,0-.373.385-.373.765C165.112,54.2,170.646,59.631,177.605,59.631Zm10.579-14.346c.872,0,1.055-.161,1.055-.765,0-6.021-4.473-10.839-11.682-10.839-8.2,0-12.438,6.133-12.369,11.6Z" transform="translate(-24.189 -4.702)" fill-rule="evenodd"/>
    <path id="Caminho_22" data-name="Caminho 22" d="M224.682.753H244.87V20.945H224.682Z" transform="translate(-33.444 -0.112)"/>
    <path id="Caminho_23" data-name="Caminho 23" d="M253.154,10.735a10.734,10.734,0,1,1,10.735,10.736A10.735,10.735,0,0,1,253.154,10.735Z" transform="translate(-37.682)" fill="#da1b5d"/>
  </g>
</svg>
